<svg xmlns="http://www.w3.org/2000/svg" viewBox="0 0 160 38" role="img" aria-label="GitHub">
  <rect x="1" y="1" width="158" height="36" rx="12" fill="#111827" stroke="#4b5563"/>
  <circle cx="22" cy="19" r="12" fill="#f9fafb" fill-opacity="0.12" stroke="#ffffff" stroke-opacity="0.24"/>
  <path d="M22 10.3c-4.9 0-8.8 3.9-8.8 8.8 0 3.9 2.5 7.2 6 8.3.4.1.6-.2.6-.4v-1.7c-2.4.5-3-1-3-1-.4-1-.9-1.3-.9-1.3-.8-.5.1-.5.1-.5.8.1 1.3.9 1.3.9.8 1.3 2 1 2.5.7.1-.6.3-1 .6-1.2-2-.2-4.1-1-4.1-4.4 0-1 .3-1.8.9-2.4-.1-.2-.4-1.2.1-2.4 0 0 .7-.2 2.5.9.7-.2 1.5-.3 2.2-.3.8 0 1.5.1 2.2.3 1.7-1.1 2.5-.9 2.5-.9.5 1.2.2 2.2.1 2.4.6.7.9 1.5.9 2.4 0 3.4-2.1 4.2-4.1 4.4.3.3.6.8.6 1.7V27c0 .2.2.5.6.4 3.5-1.2 6-4.4 6-8.3 0-4.9-3.9-8.8-8.8-8.8z" fill="#ffffff"/>
  <text x="44" y="24" font-family="Inter, Segoe UI, Arial, sans-serif" font-size="15" font-weight="800" fill="#ffffff">GitHub</text>
</svg>
