<svg width="1280" height="640" viewBox="0 0 1280 640" fill="none" xmlns="http://www.w3.org/2000/svg" role="img" aria-labelledby="title desc">
  <title id="title">EU AI Act Toolkit</title>
  <desc id="desc">Dark navy social preview with EU-inspired stars and toolkit subtitle for SME readiness support.</desc>
  <defs>
    <radialGradient id="paint0_radial" cx="0" cy="0" r="1" gradientUnits="userSpaceOnUse" gradientTransform="translate(640 130) rotate(90) scale(560 940)">
      <stop stop-color="#12387a" stop-opacity="0.58"/>
      <stop offset="1" stop-color="#071223" stop-opacity="0"/>
    </radialGradient>
    <symbol id="star" viewBox="-10 -10 20 20">
      <path d="M0 -8 L2.3 -2.5 L8 -2.4 L3.4 1.2 L5.1 7 L0 3.8 L-5.1 7 L-3.4 1.2 L-8 -2.4 L-2.3 -2.5 Z" fill="#F2C94C"/>
    </symbol>
  </defs>
  <rect width="1280" height="640" fill="#071223"/>
  <rect width="1280" height="640" fill="url(#paint0_radial)"/>
  <g opacity="0.2">
    <circle cx="1030" cy="452" r="150" fill="#69A7FF"/>
    <circle cx="240" cy="508" r="150" fill="#F2C94C"/>
  </g>
  <rect x="110" y="96" width="1060" height="448" rx="34" fill="#0B1C36" fill-opacity="0.84" stroke="#FFFFFF" stroke-opacity="0.12"/>
  <circle cx="1014" cy="198" r="88" fill="none" stroke="#F2C94C" stroke-opacity="0.24" stroke-width="2"/>
  <g opacity="0.96">
    <use href="#star" transform="translate(1014 198) rotate(0) translate(0 -82) scale(0.85)"/>
    <use href="#star" transform="translate(1014 198) rotate(30) translate(0 -82) scale(0.85)"/>
    <use href="#star" transform="translate(1014 198) rotate(60) translate(0 -82) scale(0.85)"/>
    <use href="#star" transform="translate(1014 198) rotate(90) translate(0 -82) scale(0.85)"/>
    <use href="#star" transform="translate(1014 198) rotate(120) translate(0 -82) scale(0.85)"/>
    <use href="#star" transform="translate(1014 198) rotate(150) translate(0 -82) scale(0.85)"/>
    <use href="#star" transform="translate(1014 198) rotate(180) translate(0 -82) scale(0.85)"/>
    <use href="#star" transform="translate(1014 198) rotate(210) translate(0 -82) scale(0.85)"/>
    <use href="#star" transform="translate(1014 198) rotate(240) translate(0 -82) scale(0.85)"/>
    <use href="#star" transform="translate(1014 198) rotate(270) translate(0 -82) scale(0.85)"/>
    <use href="#star" transform="translate(1014 198) rotate(300) translate(0 -82) scale(0.85)"/>
    <use href="#star" transform="translate(1014 198) rotate(330) translate(0 -82) scale(0.85)"/>
  </g>
  <text x="160" y="216" fill="#EDF3FF" font-family="Inter, Segoe UI, Arial, sans-serif" font-size="64" font-weight="800">EU AI Act Toolkit</text>
  <text x="160" y="282" fill="#B8C6E4" font-family="Inter, Segoe UI, Arial, sans-serif" font-size="30" font-weight="500">Templates • Checklists • Risk Screening • AI Governance</text>
  <rect x="160" y="334" width="390" height="58" rx="29" fill="#F2C94C" fill-opacity="0.14" stroke="#F2C94C" stroke-opacity="0.32"/>
  <text x="188" y="372" fill="#FFE9A3" font-family="Inter, Segoe UI, Arial, sans-serif" font-size="25" font-weight="700">Readiness support for SMEs</text>
  <text x="160" y="486" fill="#B8C6E4" font-family="Inter, Segoe UI, Arial, sans-serif" font-size="22" font-weight="400">github.com/artemhobotun/EU-AI-Act-Toolkit</text>
</svg>
